# xmcd
#
# Track frame offsets:
#	150
#	19072
#	35627
#	53106
#	74801
#	94145
#	112430
#	127971
#	151612
#	170378
#	180732
#	193230
#
# Disc length: 2806 seconds
#
# Revision: 1
# Processed by: cddbd v1.5.2PL0 Copyright (c) Steve Scherf et al.
# Submitted via: audiograbber 1.83.01
#
DISCID=ab0af40c
DTITLE=Various Artist - Street Beats V05 S06 Cd2
DYEAR=1900
DGENRE=R&B
TTITLE0=Jerzee Monet Ft DMX - Most High
TTITLE1=50 Cent - Wanksta
TTITLE2=Cam'ron - Hey Ma
TTITLE3=Justin Timberlake - Cry Me A River
TTITLE4=Jazzyfatnastees - Four Lives
TTITLE5=Busta Rhymes - Make It Clap (Remix Ft Sean Paul and Spliff Star)
TTITLE6=Beenie Man - Street Life
TTITLE7=Mizchif Makaz - Longtime
TTITLE8=Kelly Rowland - Stole
TTITLE9=G.K. - Gangsta No 1
TTITLE10=Az-Izz and Pacewon - Public Enemy #1
TTITLE11=Warrior King - Jah Is Always There
EXTD=
EXTT0=
EXTT1=
EXTT2=
EXTT3=
EXTT4=
EXTT5=
EXTT6=
EXTT7=
EXTT8=
EXTT9=
EXTT10=
EXTT11=
PLAYORDER=
